<svg width="562" height="562" xmlns="http://www.w3.org/2000/svg">
 <defs>
  <linearGradient y2="Infinity" y1="Infinity" x2="Infinity" x1="Infinity" id="SVGID_1_">
   <stop stop-color="#F9C8B2" offset="0"/>
   <stop stop-color="#DDA288" offset="1"/>
  </linearGradient>
  <linearGradient y2="Infinity" y1="Infinity" x2="Infinity" x1="Infinity" id="SVGID_2_">
   <stop stop-color="#FFC3B0" offset="0.0051"/>
   <stop stop-color="#E8897B" offset="1"/>
  </linearGradient>
  <linearGradient y2="-Infinity" y1="Infinity" x2="Infinity" x1="Infinity" id="SVGID_3_">
   <stop stop-color="#FFC3B0" offset="0.0051"/>
   <stop stop-color="#E8897B" offset="1"/>
  </linearGradient>
 </defs>
 <g>
  <title>background</title>
  <rect fill="none" id="canvas_background" height="564" width="564" y="-1" x="-1"/>
 </g>
 <g>
  <title>Layer 1</title>
  <rect stroke="#000" id="svg_15" height="655.465826" width="666.802444" y="-56.2631" x="-56.789101" stroke-width="1.5" fill="#007f7f"/>
  <path id="svg_1" fill="url(#SVGID_1_)" d="m273.675166,305.968166l-33.708,0c0,0 -33.052,37.774 -78.653,62.305c-7.531,4.051 -10.64,13.206 -7.074,20.979c6.578,14.339 12.987,34.326 19.289,62.811c0,0 16.432,87.021 133.855,77.492c0,0 91.366,-2.988 89.304,-139.417c-0.115,-7.674 -4.882,-14.499 -11.984,-17.405c-22.429,-9.178 -71.031,-32.457 -85.586,-66.764l-25.443,0l0,-0.001z"/>
  <path id="svg_2" fill="#DDA288" d="m384.703166,372.732166c-22.429,-9.178 -71.031,-32.457 -85.586,-66.764l-17.016,0l15.445,55.043c66.106,63.365 59.195,121.89 44.214,157.426c25.668,-14.711 56.128,-48.869 54.927,-128.3c-0.115,-7.674 -4.882,-14.499 -11.984,-17.405z"/>
  <path id="svg_3" fill="#D38D78" d="m312.555166,453.669166l-8.645,-7.959l7.96,-8.646c2.257,-2.452 2.1,-6.269 -0.353,-8.526l0,0c-2.452,-2.258 -6.27,-2.1 -8.526,0.352l-7.96,8.645l-8.645,-7.959c-2.452,-2.257 -6.269,-2.1 -8.526,0.353l0,0c-2.257,2.452 -2.1,6.269 0.352,8.526l8.646,7.959l-7.96,8.645c-2.257,2.452 -2.1,6.27 0.353,8.527l0,0c2.452,2.257 6.269,2.1 8.526,-0.352l7.96,-8.646l8.645,7.96c2.451,2.257 6.269,2.1 8.526,-0.353l0,0c2.256,-2.451 2.099,-6.268 -0.353,-8.526z"/>
  <path id="svg_4" fill="url(#SVGID_2_)" d="m239.967166,246.897166l0,75.587c0,0 0,26.084 27.894,37.12c6.032,2.387 10.699,7.312 12.29,13.602l7.744,30.627c0.645,2.548 4.363,2.22 4.552,-0.401l2.415,-33.657c0.286,-3.987 1.667,-7.859 4.183,-10.966c3.798,-4.688 9.078,-14.061 8.253,-29.338l0,-45.098l-67.331,-37.476z"/>
  <path id="svg_5" fill="#E8897B" d="m301.859166,354.701166c0.184,-0.311 0.359,-0.649 0.539,-0.98c0.298,-0.545 0.589,-1.104 0.876,-1.704c0.186,-0.388 0.361,-0.79 0.541,-1.2c0.27,-0.617 0.526,-1.26 0.777,-1.932c0.169,-0.451 0.333,-0.904 0.491,-1.381c0.238,-0.717 0.453,-1.473 0.663,-2.244c0.135,-0.496 0.272,-0.979 0.394,-1.499c0.205,-0.881 0.37,-1.817 0.529,-2.767c0.08,-0.477 0.178,-0.926 0.245,-1.42c0.2,-1.476 0.353,-3.014 0.421,-4.648l0,0c0.072,-1.727 0.065,-3.545 -0.038,-5.455l0,-45.098l-67.33,-37.476l0,6.689c3.637,4.322 8.801,10.3 14.417,16.739c14.054,16.114 25.167,34.46 32.932,54.187c5.934,15.075 -8.973,25.538 -24.684,21.583c-12.4,-3.121 -17.154,-14.256 -22.6,-22.356c0.412,5.305 3.569,26.274 27.843,35.871c6.027,2.383 10.687,7.312 12.274,13.596l7.745,30.627c0.645,2.548 4.363,2.22 4.551,-0.401l2.416,-33.657c0.223,-3.095 1.124,-6.11 2.685,-8.763l0,0c0.449,-0.764 0.936,-1.508 1.498,-2.203c0.444,-0.549 0.91,-1.174 1.383,-1.852c0.148,-0.213 0.295,-0.459 0.444,-0.684c0.331,-0.498 0.658,-1.009 0.988,-1.572z"/>
  <path id="svg_6" fill="#353547" d="m362.107166,111.069166l0,56.925c0,0 15.029,-8.116 19.996,-26.52c3.748,-13.886 -5.288,-28.39 -19.537,-30.346c-0.153,-0.02 -0.306,-0.04 -0.459,-0.059z"/>
  <path id="svg_7" fill="#E8897B" d="m362.107166,196.261166l0,43.859l0,0c9.276,0 16.797,-8.517 16.797,-19.022l0,-5.813c0,-10.506 -7.521,-19.024 -16.797,-19.024l0,0z"/>
  <path id="svg_8" fill="url(#SVGID_3_)" d="m364.906166,103.411166l-2.799,166.105c0,0 -0.393,32.933 -30.287,33.391c-5.02,0.077 -9.963,-1.05 -14.649,-2.85c-14.308,-5.496 -52.141,-21.366 -76.426,-43.922c-4.689,-4.355 -7.416,-10.418 -7.416,-16.818l0,-135.906l131.577,0z"/>
  <path id="svg_9" fill="#E8897B" d="m295.384166,151.469166c0,0 14.289,5.358 26.613,-5.18c4.83,-4.13 11.502,-5.681 17.277,-3.028c4.849,2.226 9.301,6.411 9.301,14.273l0,104.572c0,5.604 -0.758,11.214 -2.601,16.507c-3.732,10.718 -12.686,24.125 -33.889,19.432c1.892,0.765 3.636,1.456 5.084,2.012c4.687,1.8 9.63,2.927 14.649,2.85c29.895,-0.458 30.287,-33.391 30.287,-33.391l2.799,-166.105l-67.477,0l-2.043,48.058z"/>
  <path id="svg_10" fill="#353547" d="m207.273166,90.346166c0,0 -23.967,7.308 -31.746,34.535c-2.517,8.811 -2.533,18.091 -0.738,27.067c3.285,16.423 15.287,52.286 35.851,73.241l22.688,-28.929c0,0 8.073,-12.295 16.331,-21.575c2.754,-3.096 5.15,-6.463 6.649,-10.284c2.441,-6.221 4.677,-15.657 1.944,-25.997c0,0 16.829,15.972 45.382,16.649c9.272,0.221 15.337,-9.912 10.101,-17.339c-0.057,-0.082 -0.115,-0.163 -0.174,-0.244c0,0 -4.8,-5.752 -8.126,-13.897c-1.286,-3.15 1.784,-6.333 5.077,-5.203c18.853,6.465 67.944,19.366 87.356,-13.316c2.428,-4.088 -0.336,-9.312 -5.146,-9.999c-3.448,-0.492 -7.272,-1.243 -10.387,-2.376c0,0 25.77,-7.197 28.408,-41.387c0.398,-5.16 -5.124,-8.782 -9.934,-6.546c-9.247,4.301 -24.194,8.803 -41.491,4.706c-3.516,-0.833 -6.865,-2.158 -10.139,-3.655c-11.574,-5.292 -51.75,-20.92 -96.7,-6.776c0.002,0 -39.435,12.131 -45.206,51.325z"/>
  <path id="svg_11" fill="#E8897B" d="m226.624166,240.120166l6.704,0l0,-43.859l-6.704,0c-11.244,0 -20.358,9.115 -20.358,20.358l0,3.143c-0.001,11.244 9.114,20.358 20.358,20.358z"/>
  <path id="svg_12" fill="#E8897B" d="m331.812166,240.120166l0,0c-4.217,0 -7.635,-3.418 -7.635,-7.635l0,-10.782c0,-4.217 3.418,-7.635 7.635,-7.635l0,0c4.216,0 7.634,3.418 7.634,7.635l0,10.782c0,4.218 -3.418,7.635 -7.634,7.635z"/>
  <circle id="svg_13" r="7.32" fill="#333345" cy="193.709166" cx="302.704166"/>
  <circle id="svg_14" r="7.32" fill="#333345" cy="193.709166" cx="346.766166"/>
 </g>
</svg>